<?xml version="1.0" encoding="UTF-8"?> <svg xmlns="http://www.w3.org/2000/svg" xmlns:xlink="http://www.w3.org/1999/xlink" version="1.1" id="Capa_1" x="0px" y="0px" viewBox="0 0 316 36" style="enable-background:new 0 0 316 36;" xml:space="preserve"> <style type="text/css"> .st0{fill:#293355;} .st1{fill:#0476BB;} </style> <g> <path class="st0" d="M168.3,26.7c0.4,0.6,3.5,5.1,3.8,5.2c0.2,0.1,0.5-0.3,0.6-0.5c1.2-1.3,2.3-3.2,3.3-4.7h4.9v8.1h-3.3v-5.2 c-0.4-0.1-0.3,0.1-0.4,0.2c-1.3,1.5-2.4,3.4-3.6,5l-3.1,0c-1.3-1.6-2.4-3.4-3.7-4.9c-0.1-0.1,0-0.3-0.4-0.2v5.2h-3.3v-8.1H168.3 L168.3,26.7z"></path> <path class="st0" d="M291.7,28.9h-10.1v0.8h9.1v2.1h-9.1v0.8h10.1c0,0.4,0.2,2.3-0.2,2.3h-12.9c0,0-0.2-0.2-0.2-0.2v-8h13.1 C291.9,26.7,291.7,28.6,291.7,28.9z"></path> <path class="st0" d="M312.1,27.5c0.3,0.3,1,1.6,0.7,1.9c-0.9-0.1-2.2,0.2-3,0c-0.4-0.1-0.4-0.4-1-0.5c-1.1-0.1-4.5-0.1-5.5,0 c-0.6,0.1-0.7,0.6-0.5,0.7c2.5,0.3,4.9-0.1,7.3,0.2c1.4,0.1,3,0.8,3,2.5c0,1.7-1.7,2.4-3.2,2.5c-2,0.2-6.3,0.2-8.3,0 c-1.5-0.2-2.5-1.2-2.7-2.6c0.9,0.1,2.1-0.1,3,0c0.5,0.1,0.9,0.4,1.6,0.5s5.9,0.1,6.1-0.2c0,0,0-0.4-0.1-0.5 c-0.5-0.7-8.6,1-10.1-1.6c-0.6-1.1-0.1-2.5,0.9-3.1c1.5-0.8,7.1-0.8,9-0.6C310.3,26.7,311.6,27,312.1,27.5L312.1,27.5z"></path> <path class="st0" d="M89.4,34.8h-3.7c-0.2,0-0.4-1-1.5-1.1c-2-0.2-4.3,0.2-6.4,0c-0.4-0.1-0.9,1.1-1.1,1.1h-3.5 c0-0.3,0.3-0.5,0.4-0.8c1.7-2.4,3.7-4.7,5.4-7.1c0.3-0.2,4-0.3,4.3-0.1L89.4,34.8L89.4,34.8z M83.2,31.5c-0.2-0.4-1.8-2.7-2-2.6 l-1.9,2.6H83.2z"></path> <path class="st0" d="M99.8,26.7v4.5c0,1.3,1.7,1.6,2.7,1.7c0.9,0.1,5.4,0.1,5.4-1.2v-4.9h3.2c0,0,0.2,0.2,0.2,0.2v4.2 c0,1.6-1.4,3-2.8,3.5c-1.5,0.5-7.5,0.5-9,0.1c-1.2-0.4-2.9-1.7-2.9-3.1v-4.9H99.8L99.8,26.7z"></path> <path class="st0" d="M127.4,28.9v5.8c0,0-0.2,0.2-0.2,0.2h-2.9c0,0-0.2-0.2-0.2-0.2v-5.8h-5v-2.3h13.4c0.4,0,0.4,2.3,0,2.3H127.4z"></path> <path class="st0" d="M227.3,29.2H222V35h-3.3v-5.5c0,0-0.2-0.2-0.2-0.2h-5.1V27h13.7C227.5,27,227.3,28.9,227.3,29.2L227.3,29.2z"></path> <path class="st0" d="M267.4,26.7c0.5,0.1,1.7,0.5,2,0.9c0.7,0.8,0.6,2.2-0.2,2.9c-0.3,0.3-0.7,0.3-0.8,0.6c2.1,0.4,1.3,2.5,2.1,3.9 h-3.2c-0.5,0-0.6-2.6-1.3-2.6h-6.3v2.6h-3.2c0,0-0.2-0.2-0.2-0.2v-8L267.4,26.7L267.4,26.7z M266.1,28.9c-1.8-0.3-4.4,0.2-6.3,0 v1.3h6.4C266.7,30.2,266.9,29.1,266.1,28.9z"></path> <path class="st0" d="M194.2,26.6c1.9-0.1,5.7-0.2,7.5,0.4c3.7,1.3,3.7,6.4,0,7.7c-1.5,0.5-6.9,0.5-8.6,0.3 c-5.2-0.5-5.5-7.3-0.3-8.3C193.1,26.6,193.8,26.6,194.2,26.6L194.2,26.6z M200.7,32.1c1.2-1.2,0.3-3-1.4-3.3c-1-0.2-4.3-0.2-5.3,0 c-2,0.3-2.5,2.8-0.8,3.7c1.1,0.5,5.6,0.5,6.7,0.1C200.1,32.5,200.6,32.3,200.7,32.1z"></path> <path class="st0" d="M145.1,26.6c2-0.1,5.9-0.2,7.7,0.5c3.6,1.5,3.3,6.6-0.6,7.7c-1.5,0.4-6.5,0.4-8.3,0.2 c-5.3-0.5-5.5-7.3-0.4-8.2C143.9,26.6,144.6,26.6,145.1,26.6L145.1,26.6z M144.9,28.8c-2.2,0.3-2.5,3.1-0.6,3.8 c1.1,0.4,5.8,0.4,6.8-0.2c1.4-0.8,1-2.9-0.4-3.4C149.9,28.7,145.9,28.7,144.9,28.8L144.9,28.8z"></path> <path class="st0" d="M238.2,26.6c2-0.1,5.8-0.2,7.7,0.5c3.2,1.3,3.4,5.9,0.2,7.4c-1.6,0.7-7.2,0.7-9.1,0.5c-1.7-0.2-3.7-1.3-3.9-3 C232.4,28.1,234.8,26.8,238.2,26.6L238.2,26.6z M244.6,29.5c-0.1-0.1-0.7-0.4-0.9-0.5c-1.1-0.4-5.8-0.4-6.8,0.3 c-0.9,0.6-1,2.4-0.2,3c1.1,0.8,6.2,0.8,7.4,0.2C245.1,31.9,245.3,30.3,244.6,29.5z"></path> <path class="st0" d="M21.9,34.9L45.2,2l23.5,33L38,34.9c0.2-0.2,1.1-1.1,1.2-1.1H57c0.1-0.2-0.5-1-0.6-1H41.9 c0.1-0.2,1-1.1,1.1-1.1h12.8c-0.1-0.2-0.6-1-0.7-1h-9c0.1-0.2,1-1.1,1.1-1.1h7.2l-9-13.6L33.3,34.2l-0.7,0.8H21.9L21.9,34.9z"></path> <path class="st1" d="M18.4,33.3L0.4,0.9c3.4,0.3,6.8,0,10.2,0.2l14.1,23.2l0.1,0.4c-0.1,0.2-0.3,0.5-0.4,0.7 C23,27.6,20.6,31.1,19,33C18.8,33.2,18.7,33.4,18.4,33.3L18.4,33.3z"></path> <path class="st1" d="M179.5,1.1l21.4,0c7.2,1,8.6,7.1,3.5,12.1c-3.4,3.3-7.3,5-12,5.6c-6.9,0.9-14.4,0.1-21.4,0.3l-0.2-0.3 L179.5,1.1L179.5,1.1z M183.5,14.7h6.9c2.4,0,5-2.9,5.7-5c2.2-5.9-4.1-5.2-7.9-5L187.9,5L183.5,14.7L183.5,14.7z"></path> <path class="st1" d="M98.5,19c-0.1-0.4,0.1-0.3,0.2-0.4c7-6,14.3-11.6,21.3-17.5l11.8-0.1l3.8,18h-11c0,0-0.2-0.2-0.2-0.2v-2.7 h-12.1c-0.2,0-2.9,2.9-3.1,2.9H98.5L98.5,19z M116.7,12.2h7l-0.6-6.3L116.7,12.2L116.7,12.2z"></path> <path class="st1" d="M278.5,19c-0.1-0.4,0.1-0.3,0.2-0.4c6.8-6.1,14.3-11.5,21.1-17.5c3.9-0.3,7.9,0,11.9-0.1l3.8,18h-11.2v-2.9 h-12.1c-0.3,0-2.9,2.9-3.1,2.9H278.5L278.5,19z M296.8,12.2h7l-0.6-6.3L296.8,12.2L296.8,12.2z"></path> <path class="st1" d="M83.8,1.1l1.5,13L99,1.1h10.6c-6.7,6-13.7,11.9-20.6,17.7l-12.2,0L72.6,1.1L83.8,1.1L83.8,1.1z"></path> <path class="st1" d="M242.4,1.1l1.5,12.8l13.7-12.8h10.7l-20.7,17.7l-11.5,0.1l-3.9-17.8C232.2,1.1,242.4,1.1,242.4,1.1z"></path> <path class="st1" d="M158.2,1.1l-6.3,13.3h16c0,0,0.3,0.2,0.2,0.3l-2.1,4.4H139l8.3-18L158.2,1.1L158.2,1.1z"></path> <path class="st1" d="M227.6,1.1L219,19h-10.7l8.8-18C217,1.1,227.6,1.1,227.6,1.1z"></path> <path class="st1" d="M282.8,1.1l-8.5,18h-10.6l8.6-18H282.8z"></path> </g> </svg> 