<svg xmlns="http://www.w3.org/2000/svg" id="Capa_2" data-name="Capa 2" viewBox="0 0 305.2 152.8"><defs><style>      .cls-1 {        fill: #293355;      }      .cls-2 {        fill: #0476bb;      }    </style></defs><g id="Capa_1-2" data-name="Capa 1"><g><path class="cls-1" d="M95.9,152.1L200.2,5.1l105,147.7-137.4-.7c1-.7,5.1-5.1,5.5-5.1h79.6c.3-.8-2.3-4.3-2.5-4.3h-65.1c.5-.9,4.4-5.1,4.7-5.1h57.1c-.4-.8-2.8-4.3-3.3-4.3h-40.3c.5-.9,4.4-5.1,4.7-5.1h32.3l-40.3-60.8-53,81.2-3,3.5h-48.3Z"></path><path class="cls-2" d="M80.7,144.8L0,0C15.2,1.4,30.5,.2,45.8,1.1l63.2,103.7,.4,1.8c-.6,1.1-1.3,2-2,3.1-6.4,9.7-16.9,25.3-24.3,33.8-.7,.7-1.1,1.6-2.4,1.3h0Z"></path></g></g></svg>